<svg width="164" height="21" viewBox="0 0 164 21" fill="none" xmlns="http://www.w3.org/2000/svg">
<path d="M10.94 8.72C11.74 8.97333 12.3667 9.4 12.82 10C13.2733 10.5867 13.5 11.3133 13.5 12.18C13.5 13.4067 13.02 14.3533 12.06 15.02C11.1133 15.6733 9.72667 16 7.9 16H0.66V2H7.5C9.20667 2 10.5133 2.32667 11.42 2.98C12.34 3.63333 12.8 4.52 12.8 5.64C12.8 6.32 12.6333 6.92667 12.3 7.46C11.98 7.99333 11.5267 8.41333 10.94 8.72ZM3.88 4.44V7.74H7.1C7.9 7.74 8.50667 7.6 8.92 7.32C9.33333 7.04 9.54 6.62667 9.54 6.08C9.54 5.53333 9.33333 5.12667 8.92 4.86C8.50667 4.58 7.9 4.44 7.1 4.44H3.88ZM7.66 13.56C8.51333 13.56 9.15333 13.42 9.58 13.14C10.02 12.86 10.24 12.4267 10.24 11.84C10.24 10.68 9.38 10.1 7.66 10.1H3.88V13.56H7.66ZM26.813 5.24L21.953 16.66C21.4596 17.9 20.8463 18.7733 20.113 19.28C19.393 19.7867 18.5196 20.04 17.493 20.04C16.933 20.04 16.3796 19.9533 15.833 19.78C15.2863 19.6067 14.8396 19.3667 14.493 19.06L15.633 16.84C15.873 17.0533 16.1463 17.22 16.453 17.34C16.773 17.46 17.0863 17.52 17.393 17.52C17.8196 17.52 18.1663 17.4133 18.433 17.2C18.6996 17 18.9396 16.66 19.153 16.18L19.193 16.08L14.533 5.24H17.753L20.773 12.54L23.813 5.24H26.813ZM35.7191 15.48C35.4124 15.7067 35.0324 15.88 34.5791 16C34.1391 16.1067 33.6724 16.16 33.1791 16.16C31.8991 16.16 30.9057 15.8333 30.1991 15.18C29.5057 14.5267 29.1591 13.5667 29.1591 12.3V7.88H27.4991V5.48H29.1591V2.86H32.2791V5.48H34.9591V7.88H32.2791V12.26C32.2791 12.7133 32.3924 13.0667 32.6191 13.32C32.8591 13.56 33.1924 13.68 33.6191 13.68C34.1124 13.68 34.5324 13.5467 34.8791 13.28L35.7191 15.48ZM48.0784 10.66C48.0784 10.7 48.0584 10.98 48.0184 11.5H39.8784C40.0251 12.1667 40.3718 12.6933 40.9184 13.08C41.4651 13.4667 42.1451 13.66 42.9584 13.66C43.5184 13.66 44.0118 13.58 44.4384 13.42C44.8784 13.2467 45.2851 12.98 45.6584 12.62L47.3184 14.42C46.3051 15.58 44.8251 16.16 42.8784 16.16C41.6651 16.16 40.5918 15.9267 39.6584 15.46C38.7251 14.98 38.0051 14.32 37.4984 13.48C36.9918 12.64 36.7384 11.6867 36.7384 10.62C36.7384 9.56667 36.9851 8.62 37.4784 7.78C37.9851 6.92667 38.6718 6.26667 39.5384 5.8C40.4184 5.32 41.3984 5.08 42.4784 5.08C43.5318 5.08 44.4851 5.30667 45.3384 5.76C46.1918 6.21333 46.8584 6.86667 47.3384 7.72C47.8318 8.56 48.0784 9.54 48.0784 10.66ZM42.4984 7.44C41.7918 7.44 41.1984 7.64 40.7184 8.04C40.2384 8.44 39.9451 8.98667 39.8384 9.68H45.1384C45.0318 9 44.7384 8.46 44.2584 8.06C43.7784 7.64667 43.1918 7.44 42.4984 7.44ZM67.6797 13.4V16H56.8397V2H67.4197V4.6H60.0597V7.64H66.5597V10.16H60.0597V13.4H67.6797ZM81.3195 1.16V16H78.3395V14.76C77.5662 15.6933 76.4462 16.16 74.9795 16.16C73.9662 16.16 73.0462 15.9333 72.2195 15.48C71.4062 15.0267 70.7662 14.38 70.2995 13.54C69.8329 12.7 69.5995 11.7267 69.5995 10.62C69.5995 9.51333 69.8329 8.54 70.2995 7.7C70.7662 6.86 71.4062 6.21333 72.2195 5.76C73.0462 5.30667 73.9662 5.08 74.9795 5.08C76.3529 5.08 77.4262 5.51333 78.1995 6.38V1.16H81.3195ZM75.5195 13.6C76.3062 13.6 76.9595 13.3333 77.4795 12.8C77.9995 12.2533 78.2595 11.5267 78.2595 10.62C78.2595 9.71333 77.9995 8.99333 77.4795 8.46C76.9595 7.91333 76.3062 7.64 75.5195 7.64C74.7195 7.64 74.0595 7.91333 73.5395 8.46C73.0195 8.99333 72.7595 9.71333 72.7595 10.62C72.7595 11.5267 73.0195 12.2533 73.5395 12.8C74.0595 13.3333 74.7195 13.6 75.5195 13.6ZM95.4472 5.24V16H92.4872V14.72C92.0739 15.1867 91.5805 15.5467 91.0072 15.8C90.4339 16.04 89.8139 16.16 89.1472 16.16C87.7339 16.16 86.6139 15.7533 85.7872 14.94C84.9605 14.1267 84.5472 12.92 84.5472 11.32V5.24H87.6672V10.86C87.6672 12.5933 88.3939 13.46 89.8472 13.46C90.5939 13.46 91.1939 13.22 91.6472 12.74C92.1005 12.2467 92.3272 11.52 92.3272 10.56V5.24H95.4472ZM103.938 16.16C102.791 16.16 101.758 15.9267 100.838 15.46C99.931 14.98 99.2177 14.32 98.6977 13.48C98.191 12.64 97.9377 11.6867 97.9377 10.62C97.9377 9.55333 98.191 8.6 98.6977 7.76C99.2177 6.92 99.931 6.26667 100.838 5.8C101.758 5.32 102.791 5.08 103.938 5.08C105.071 5.08 106.058 5.32 106.898 5.8C107.751 6.26667 108.371 6.94 108.758 7.82L106.338 9.12C105.778 8.13333 104.971 7.64 103.918 7.64C103.104 7.64 102.431 7.90667 101.898 8.44C101.364 8.97333 101.098 9.7 101.098 10.62C101.098 11.54 101.364 12.2667 101.898 12.8C102.431 13.3333 103.104 13.6 103.918 13.6C104.984 13.6 105.791 13.1067 106.338 12.12L108.758 13.44C108.371 14.2933 107.751 14.96 106.898 15.44C106.058 15.92 105.071 16.16 103.938 16.16ZM115.294 5.08C116.961 5.08 118.241 5.48 119.134 6.28C120.027 7.06667 120.474 8.26 120.474 9.86V16H117.554V14.66C116.967 15.66 115.874 16.16 114.274 16.16C113.447 16.16 112.727 16.02 112.114 15.74C111.514 15.46 111.054 15.0733 110.734 14.58C110.414 14.0867 110.254 13.5267 110.254 12.9C110.254 11.9 110.627 11.1133 111.374 10.54C112.134 9.96667 113.301 9.68 114.874 9.68H117.354C117.354 9 117.147 8.48 116.734 8.12C116.321 7.74667 115.701 7.56 114.874 7.56C114.301 7.56 113.734 7.65333 113.174 7.84C112.627 8.01333 112.161 8.25333 111.774 8.56L110.654 6.38C111.241 5.96667 111.941 5.64667 112.754 5.42C113.581 5.19333 114.427 5.08 115.294 5.08ZM115.054 14.06C115.587 14.06 116.061 13.94 116.474 13.7C116.887 13.4467 117.181 13.08 117.354 12.6V11.5H115.214C113.934 11.5 113.294 11.92 113.294 12.76C113.294 13.16 113.447 13.48 113.754 13.72C114.074 13.9467 114.507 14.06 115.054 14.06ZM130.638 15.48C130.331 15.7067 129.951 15.88 129.498 16C129.058 16.1067 128.591 16.16 128.098 16.16C126.818 16.16 125.824 15.8333 125.118 15.18C124.424 14.5267 124.078 13.5667 124.078 12.3V7.88H122.418V5.48H124.078V2.86H127.198V5.48H129.878V7.88H127.198V12.26C127.198 12.7133 127.311 13.0667 127.538 13.32C127.778 13.56 128.111 13.68 128.538 13.68C129.031 13.68 129.451 13.5467 129.798 13.28L130.638 15.48ZM132.789 5.24H135.909V16H132.789V5.24ZM134.349 3.74C133.776 3.74 133.309 3.57333 132.949 3.24C132.589 2.90667 132.409 2.49333 132.409 2C132.409 1.50667 132.589 1.09333 132.949 0.76C133.309 0.426666 133.776 0.259999 134.349 0.259999C134.923 0.259999 135.389 0.419999 135.749 0.74C136.109 1.06 136.289 1.46 136.289 1.94C136.289 2.46 136.109 2.89333 135.749 3.24C135.389 3.57333 134.923 3.74 134.349 3.74ZM144.325 16.16C143.192 16.16 142.172 15.9267 141.265 15.46C140.372 14.98 139.672 14.32 139.165 13.48C138.658 12.64 138.405 11.6867 138.405 10.62C138.405 9.55333 138.658 8.6 139.165 7.76C139.672 6.92 140.372 6.26667 141.265 5.8C142.172 5.32 143.192 5.08 144.325 5.08C145.458 5.08 146.472 5.32 147.365 5.8C148.258 6.26667 148.958 6.92 149.465 7.76C149.972 8.6 150.225 9.55333 150.225 10.62C150.225 11.6867 149.972 12.64 149.465 13.48C148.958 14.32 148.258 14.98 147.365 15.46C146.472 15.9267 145.458 16.16 144.325 16.16ZM144.325 13.6C145.125 13.6 145.778 13.3333 146.285 12.8C146.805 12.2533 147.065 11.5267 147.065 10.62C147.065 9.71333 146.805 8.99333 146.285 8.46C145.778 7.91333 145.125 7.64 144.325 7.64C143.525 7.64 142.865 7.91333 142.345 8.46C141.825 8.99333 141.565 9.71333 141.565 10.62C141.565 11.5267 141.825 12.2533 142.345 12.8C142.865 13.3333 143.525 13.6 144.325 13.6ZM159.25 5.08C160.584 5.08 161.657 5.48 162.47 6.28C163.297 7.08 163.71 8.26667 163.71 9.84V16H160.59V10.32C160.59 9.46667 160.404 8.83333 160.03 8.42C159.657 7.99333 159.117 7.78 158.41 7.78C157.624 7.78 156.997 8.02667 156.53 8.52C156.064 9 155.83 9.72 155.83 10.68V16H152.71V5.24H155.69V6.5C156.104 6.04667 156.617 5.7 157.23 5.46C157.844 5.20667 158.517 5.08 159.25 5.08Z" fill="white"/>
</svg>
